<?xml version="1.0" encoding="utf-8"?>
<!-- Generator: Adobe Illustrator 28.2.0, SVG Export Plug-In . SVG Version: 6.00 Build 0)  -->
<svg version="1.1" id="Layer_1" xmlns="http://www.w3.org/2000/svg" xmlns:xlink="http://www.w3.org/1999/xlink" x="0px" y="0px"
	 viewBox="0 0 708.6 685.6" style="enable-background:new 0 0 708.6 685.6;" xml:space="preserve">
<style type="text/css">
	.st0{fill:#ADAAAB;}
	.st1{fill:#DC2434;}
</style>
<path class="st0" d="M93.7,0.2C42,0.2,0,42.2,0,93.9v231.9l183.4-0.8c19.2-0.1,37.6-7.8,51.2-21.4L538.1,0.2H93.7z"/>
<path class="st0" d="M234.6,381.4c-13.6-13.6-32-21.3-51.2-21.4L0,359.3v231.9c0,51.8,42,93.7,93.7,93.7h444.4L234.6,381.4z"/>
<path class="st1" d="M496.9,361.2c-10-10-10-26.3,0-36.4l188.2-188.2c31.2-31.2,31.2-81.9,0-113.2c-31.2-31.2-81.9-31.2-113.2,0
	l-263,263c-31.2,31.2-31.2,81.9,0,113.2l262.6,262.6c15.6,15.6,36.1,23.4,56.6,23.4c20.5,0,41-7.8,56.6-23.4
	c31.3-31.2,31.3-81.9,0-113.2L496.9,361.2z"/>
</svg>
